<?xml version='1.0' encoding='UTF-8'?>
<svg width="41mm" height="41mm" version="1.1" viewBox="0 0 41 41" fill_color="#111111" back_color="#FFFFFF" xmlns="http://www.w3.org/2000/svg"><path d="M2,2H3V3H2zM3,2H4V3H3zM4,2H5V3H4zM5,2H6V3H5zM6,2H7V3H6zM7,2H8V3H7zM8,2H9V3H8zM10,2H11V3H10zM12,2H13V3H12zM15,2H16V3H15zM17,2H18V3H17zM18,2H19V3H18zM19,2H20V3H19zM20,2H21V3H20zM24,2H25V3H24zM26,2H27V3H26zM27,2H28V3H27zM28,2H29V3H28zM32,2H33V3H32zM33,2H34V3H33zM34,2H35V3H34zM35,2H36V3H35zM36,2H37V3H36zM37,2H38V3H37zM38,2H39V3H38zM2,3H3V4H2zM8,3H9V4H8zM12,3H13V4H12zM14,3H15V4H14zM15,3H16V4H15zM16,3H17V4H16zM19,3H20V4H19zM20,3H21V4H20zM22,3H23V4H22zM23,3H24V4H23zM24,3H25V4H24zM25,3H26V4H25zM27,3H28V4H27zM28,3H29V4H28zM30,3H31V4H30zM32,3H33V4H32zM38,3H39V4H38zM2,4H3V5H2zM4,4H5V5H4zM5,4H6V5H5zM6,4H7V5H6zM8,4H9V5H8zM10,4H11V5H10zM11,4H12V5H11zM12,4H13V5H12zM13,4H14V5H13zM15,4H16V5H15zM16,4H17V5H16zM17,4H18V5H17zM19,4H20V5H19zM21,4H22V5H21zM22,4H23V5H22zM23,4H24V5H23zM25,4H26V5H25zM26,4H27V5H26zM29,4H30V5H29zM32,4H33V5H32zM34,4H35V5H34zM35,4H36V5H35zM36,4H37V5H36zM38,4H39V5H38zM2,5H3V6H2zM4,5H5V6H4zM5,5H6V6H5zM6,5H7V6H6zM8,5H9V6H8zM13,5H14V6H13zM14,5H15V6H14zM15,5H16V6H15zM16,5H17V6H16zM17,5H18V6H17zM19,5H20V6H19zM22,5H23V6H22zM24,5H25V6H24zM25,5H26V6H25zM26,5H27V6H26zM27,5H28V6H27zM29,5H30V6H29zM30,5H31V6H30zM32,5H33V6H32zM34,5H35V6H34zM35,5H36V6H35zM36,5H37V6H36zM38,5H39V6H38zM2,6H3V7H2zM4,6H5V7H4zM5,6H6V7H5zM6,6H7V7H6zM8,6H9V7H8zM10,6H11V7H10zM14,6H15V7H14zM15,6H16V7H15zM18,6H19V7H18zM21,6H22V7H21zM22,6H23V7H22zM23,6H24V7H23zM24,6H25V7H24zM25,6H26V7H25zM28,6H29V7H28zM32,6H33V7H32zM34,6H35V7H34zM35,6H36V7H35zM36,6H37V7H36zM38,6H39V7H38zM2,7H3V8H2zM8,7H9V8H8zM11,7H12V8H11zM14,7H15V8H14zM15,7H16V8H15zM18,7H19V8H18zM19,7H20V8H19zM21,7H22V8H21zM22,7H23V8H22zM23,7H24V8H23zM30,7H31V8H30zM32,7H33V8H32zM38,7H39V8H38zM2,8H3V9H2zM3,8H4V9H3zM4,8H5V9H4zM5,8H6V9H5zM6,8H7V9H6zM7,8H8V9H7zM8,8H9V9H8zM10,8H11V9H10zM12,8H13V9H12zM14,8H15V9H14zM16,8H17V9H16zM18,8H19V9H18zM20,8H21V9H20zM22,8H23V9H22zM24,8H25V9H24zM26,8H27V9H26zM28,8H29V9H28zM30,8H31V9H30zM32,8H33V9H32zM33,8H34V9H33zM34,8H35V9H34zM35,8H36V9H35zM36,8H37V9H36zM37,8H38V9H37zM38,8H39V9H38zM10,9H11V10H10zM11,9H12V10H11zM14,9H15V10H14zM21,9H22V10H21zM23,9H24V10H23zM24,9H25V10H24zM25,9H26V10H25zM26,9H27V10H26zM28,9H29V10H28zM29,9H30V10H29zM30,9H31V10H30zM7,10H8V11H7zM8,10H9V11H8zM11,10H12V11H11zM13,10H14V11H13zM16,10H17V11H16zM18,10H19V11H18zM20,10H21V11H20zM23,10H24V11H23zM24,10H25V11H24zM26,10H27V11H26zM32,10H33V11H32zM34,10H35V11H34zM36,10H37V11H36zM38,10H39V11H38zM4,11H5V12H4zM5,11H6V12H5zM6,11H7V12H6zM9,11H10V12H9zM10,11H11V12H10zM13,11H14V12H13zM14,11H15V12H14zM15,11H16V12H15zM17,11H18V12H17zM19,11H20V12H19zM21,11H22V12H21zM24,11H25V12H24zM25,11H26V12H25zM27,11H28V12H27zM31,11H32V12H31zM32,11H33V12H32zM34,11H35V12H34zM36,11H37V12H36zM4,12H5V13H4zM5,12H6V13H5zM8,12H9V13H8zM10,12H11V13H10zM15,12H16V13H15zM17,12H18V13H17zM18,12H19V13H18zM20,12H21V13H20zM24,12H25V13H24zM25,12H26V13H25zM26,12H27V13H26zM27,12H28V13H27zM28,12H29V13H28zM32,12H33V13H32zM33,12H34V13H33zM35,12H36V13H35zM38,12H39V13H38zM2,13H3V14H2zM3,13H4V14H3zM10,13H11V14H10zM11,13H12V14H11zM13,13H14V14H13zM15,13H16V14H15zM16,13H17V14H16zM18,13H19V14H18zM20,13H21V14H20zM21,13H22V14H21zM23,13H24V14H23zM28,13H29V14H28zM29,13H30V14H29zM30,13H31V14H30zM32,13H33V14H32zM37,13H38V14H37zM3,14H4V15H3zM8,14H9V15H8zM9,14H10V15H9zM10,14H11V15H10zM12,14H13V15H12zM14,14H15V15H14zM21,14H22V15H21zM24,14H25V15H24zM25,14H26V15H25zM26,14H27V15H26zM30,14H31V15H30zM32,14H33V15H32zM35,14H36V15H35zM37,14H38V15H37zM38,14H39V15H38zM2,15H3V16H2zM3,15H4V16H3zM7,15H8V16H7zM9,15H10V16H9zM10,15H11V16H10zM11,15H12V16H11zM14,15H15V16H14zM15,15H16V16H15zM17,15H18V16H17zM18,15H19V16H18zM20,15H21V16H20zM23,15H24V16H23zM24,15H25V16H24zM26,15H27V16H26zM29,15H30V16H29zM30,15H31V16H30zM31,15H32V16H31zM33,15H34V16H33zM36,15H37V16H36zM37,15H38V16H37zM2,16H3V17H2zM4,16H5V17H4zM5,16H6V17H5zM6,16H7V17H6zM8,16H9V17H8zM10,16H11V17H10zM11,16H12V17H11zM12,16H13V17H12zM15,16H16V17H15zM17,16H18V17H17zM19,16H20V17H19zM21,16H22V17H21zM27,16H28V17H27zM29,16H30V17H29zM30,16H31V17H30zM31,16H32V17H31zM32,16H33V17H32zM33,16H34V17H33zM35,16H36V17H35zM37,16H38V17H37zM38,16H39V17H38zM4,17H5V18H4zM5,17H6V18H5zM6,17H7V18H6zM7,17H8V18H7zM12,17H13V18H12zM15,17H16V18H15zM16,17H17V18H16zM17,17H18V18H17zM21,17H22V18H21zM24,17H25V18H24zM25,17H26V18H25zM26,17H27V18H26zM28,17H29V18H28zM30,17H31V18H30zM32,17H33V18H32zM33,17H34V18H33zM34,17H35V18H34zM35,17H36V18H35zM36,17H37V18H36zM38,17H39V18H38zM2,18H3V19H2zM4,18H5V19H4zM6,18H7V19H6zM8,18H9V19H8zM11,18H12V19H11zM12,18H13V19H12zM13,18H14V19H13zM17,18H18V19H17zM19,18H20V19H19zM24,18H25V19H24zM25,18H26V19H25zM26,18H27V19H26zM27,18H28V19H27zM28,18H29V19H28zM31,18H32V19H31zM32,18H33V19H32zM33,18H34V19H33zM34,18H35V19H34zM36,18H37V19H36zM2,19H3V20H2zM3,19H4V20H3zM6,19H7V20H6zM7,19H8V20H7zM12,19H13V20H12zM15,19H16V20H15zM17,19H18V20H17zM18,19H19V20H18zM20,19H21V20H20zM21,19H22V20H21zM26,19H27V20H26zM27,19H28V20H27zM29,19H30V20H29zM30,19H31V20H30zM33,19H34V20H33zM35,19H36V20H35zM3,20H4V21H3zM4,20H5V21H4zM6,20H7V21H6zM7,20H8V21H7zM8,20H9V21H8zM9,20H10V21H9zM10,20H11V21H10zM11,20H12V21H11zM12,20H13V21H12zM13,20H14V21H13zM16,20H17V21H16zM18,20H19V21H18zM19,20H20V21H19zM23,20H24V21H23zM27,20H28V21H27zM28,20H29V21H28zM29,20H30V21H29zM32,20H33V21H32zM33,20H34V21H33zM34,20H35V21H34zM36,20H37V21H36zM38,20H39V21H38zM4,21H5V22H4zM5,21H6V22H5zM6,21H7V22H6zM7,21H8V22H7zM9,21H10V22H9zM14,21H15V22H14zM15,21H16V22H15zM16,21H17V22H16zM18,21H19V22H18zM19,21H20V22H19zM22,21H23V22H22zM23,21H24V22H23zM24,21H25V22H24zM25,21H26V22H25zM26,21H27V22H26zM28,21H29V22H28zM29,21H30V22H29zM32,21H33V22H32zM34,21H35V22H34zM35,21H36V22H35zM37,21H38V22H37zM2,22H3V23H2zM3,22H4V23H3zM4,22H5V23H4zM6,22H7V23H6zM7,22H8V23H7zM8,22H9V23H8zM9,22H10V23H9zM11,22H12V23H11zM13,22H14V23H13zM15,22H16V23H15zM17,22H18V23H17zM19,22H20V23H19zM20,22H21V23H20zM21,22H22V23H21zM23,22H24V23H23zM25,22H26V23H25zM27,22H28V23H27zM31,22H32V23H31zM32,22H33V23H32zM33,22H34V23H33zM34,22H35V23H34zM35,22H36V23H35zM36,22H37V23H36zM38,22H39V23H38zM2,23H3V24H2zM5,23H6V24H5zM9,23H10V24H9zM17,23H18V24H17zM22,23H23V24H22zM23,23H24V24H23zM25,23H26V24H25zM26,23H27V24H26zM27,23H28V24H27zM28,23H29V24H28zM29,23H30V24H29zM30,23H31V24H30zM33,23H34V24H33zM34,23H35V24H34zM35,23H36V24H35zM37,23H38V24H37zM8,24H9V25H8zM9,24H10V25H9zM11,24H12V25H11zM13,24H14V25H13zM16,24H17V25H16zM18,24H19V25H18zM21,24H22V25H21zM22,24H23V25H22zM27,24H28V25H27zM28,24H29V25H28zM29,24H30V25H29zM31,24H32V25H31zM35,24H36V25H35zM36,24H37V25H36zM37,24H38V25H37zM38,24H39V25H38zM3,25H4V26H3zM4,25H5V26H4zM6,25H7V26H6zM12,25H13V26H12zM15,25H16V26H15zM16,25H17V26H16zM17,25H18V26H17zM18,25H19V26H18zM19,25H20V26H19zM20,25H21V26H20zM21,25H22V26H21zM22,25H23V26H22zM24,25H25V26H24zM25,25H26V26H25zM26,25H27V26H26zM27,25H28V26H27zM29,25H30V26H29zM33,25H34V26H33zM35,25H36V26H35zM38,25H39V26H38zM2,26H3V27H2zM3,26H4V27H3zM4,26H5V27H4zM6,26H7V27H6zM7,26H8V27H7zM8,26H9V27H8zM9,26H10V27H9zM10,26H11V27H10zM12,26H13V27H12zM17,26H18V27H17zM18,26H19V27H18zM20,26H21V27H20zM26,26H27V27H26zM27,26H28V27H27zM33,26H34V27H33zM34,26H35V27H34zM35,26H36V27H35zM37,26H38V27H37zM38,26H39V27H38zM2,27H3V28H2zM3,27H4V28H3zM4,27H5V28H4zM5,27H6V28H5zM6,27H7V28H6zM7,27H8V28H7zM10,27H11V28H10zM13,27H14V28H13zM16,27H17V28H16zM19,27H20V28H19zM21,27H22V28H21zM24,27H25V28H24zM27,27H28V28H27zM32,27H33V28H32zM33,27H34V28H33zM34,27H35V28H34zM35,27H36V28H35zM36,27H37V28H36zM37,27H38V28H37zM2,28H3V29H2zM4,28H5V29H4zM6,28H7V29H6zM8,28H9V29H8zM9,28H10V29H9zM13,28H14V29H13zM15,28H16V29H15zM16,28H17V29H16zM17,28H18V29H17zM24,28H25V29H24zM25,28H26V29H25zM26,28H27V29H26zM27,28H28V29H27zM28,28H29V29H28zM29,28H30V29H29zM30,28H31V29H30zM32,28H33V29H32zM34,28H35V29H34zM36,28H37V29H36zM37,28H38V29H37zM38,28H39V29H38zM2,29H3V30H2zM4,29H5V30H4zM5,29H6V30H5zM10,29H11V30H10zM15,29H16V30H15zM16,29H17V30H16zM18,29H19V30H18zM21,29H22V30H21zM22,29H23V30H22zM24,29H25V30H24zM25,29H26V30H25zM30,29H31V30H30zM31,29H32V30H31zM33,29H34V30H33zM36,29H37V30H36zM37,29H38V30H37zM2,30H3V31H2zM4,30H5V31H4zM7,30H8V31H7zM8,30H9V31H8zM9,30H10V31H9zM14,30H15V31H14zM16,30H17V31H16zM18,30H19V31H18zM19,30H20V31H19zM21,30H22V31H21zM22,30H23V31H22zM24,30H25V31H24zM25,30H26V31H25zM27,30H28V31H27zM28,30H29V31H28zM29,30H30V31H29zM30,30H31V31H30zM31,30H32V31H31zM32,30H33V31H32zM33,30H34V31H33zM34,30H35V31H34zM35,30H36V31H35zM38,30H39V31H38zM10,31H11V32H10zM12,31H13V32H12zM13,31H14V32H13zM14,31H15V32H14zM15,31H16V32H15zM17,31H18V32H17zM18,31H19V32H18zM19,31H20V32H19zM20,31H21V32H20zM21,31H22V32H21zM23,31H24V32H23zM25,31H26V32H25zM27,31H28V32H27zM28,31H29V32H28zM30,31H31V32H30zM34,31H35V32H34zM35,31H36V32H35zM2,32H3V33H2zM3,32H4V33H3zM4,32H5V33H4zM5,32H6V33H5zM6,32H7V33H6zM7,32H8V33H7zM8,32H9V33H8zM11,32H12V33H11zM15,32H16V33H15zM17,32H18V33H17zM19,32H20V33H19zM22,32H23V33H22zM23,32H24V33H23zM24,32H25V33H24zM25,32H26V33H25zM30,32H31V33H30zM32,32H33V33H32zM34,32H35V33H34zM35,32H36V33H35zM36,32H37V33H36zM38,32H39V33H38zM2,33H3V34H2zM8,33H9V34H8zM10,33H11V34H10zM11,33H12V34H11zM12,33H13V34H12zM17,33H18V34H17zM19,33H20V34H19zM22,33H23V34H22zM24,33H25V34H24zM26,33H27V34H26zM28,33H29V34H28zM29,33H30V34H29zM30,33H31V34H30zM34,33H35V34H34zM35,33H36V34H35zM37,33H38V34H37zM2,34H3V35H2zM4,34H5V35H4zM5,34H6V35H5zM6,34H7V35H6zM8,34H9V35H8zM12,34H13V35H12zM13,34H14V35H13zM14,34H15V35H14zM16,34H17V35H16zM17,34H18V35H17zM19,34H20V35H19zM21,34H22V35H21zM24,34H25V35H24zM27,34H28V35H27zM28,34H29V35H28zM29,34H30V35H29zM30,34H31V35H30zM31,34H32V35H31zM32,34H33V35H32zM33,34H34V35H33zM34,34H35V35H34zM36,34H37V35H36zM38,34H39V35H38zM2,35H3V36H2zM4,35H5V36H4zM5,35H6V36H5zM6,35H7V36H6zM8,35H9V36H8zM11,35H12V36H11zM12,35H13V36H12zM14,35H15V36H14zM15,35H16V36H15zM16,35H17V36H16zM18,35H19V36H18zM19,35H20V36H19zM20,35H21V36H20zM23,35H24V36H23zM26,35H27V36H26zM27,35H28V36H27zM30,35H31V36H30zM32,35H33V36H32zM35,35H36V36H35zM36,35H37V36H36zM2,36H3V37H2zM4,36H5V37H4zM5,36H6V37H5zM6,36H7V37H6zM8,36H9V37H8zM11,36H12V37H11zM12,36H13V37H12zM15,36H16V37H15zM17,36H18V37H17zM18,36H19V37H18zM19,36H20V37H19zM20,36H21V37H20zM22,36H23V37H22zM24,36H25V37H24zM27,36H28V37H27zM28,36H29V37H28zM30,36H31V37H30zM31,36H32V37H31zM33,36H34V37H33zM35,36H36V37H35zM38,36H39V37H38zM2,37H3V38H2zM8,37H9V38H8zM11,37H12V38H11zM12,37H13V38H12zM14,37H15V38H14zM16,37H17V38H16zM19,37H20V38H19zM20,37H21V38H20zM21,37H22V38H21zM22,37H23V38H22zM23,37H24V38H23zM24,37H25V38H24zM26,37H27V38H26zM30,37H31V38H30zM32,37H33V38H32zM34,37H35V38H34zM35,37H36V38H35zM38,37H39V38H38zM2,38H3V39H2zM3,38H4V39H3zM4,38H5V39H4zM5,38H6V39H5zM6,38H7V39H6zM7,38H8V39H7zM8,38H9V39H8zM11,38H12V39H11zM14,38H15V39H14zM15,38H16V39H15zM17,38H18V39H17zM18,38H19V39H18zM19,38H20V39H19zM22,38H23V39H22zM25,38H26V39H25zM26,38H27V39H26zM30,38H31V39H30zM32,38H33V39H32zM35,38H36V39H35zM38,38H39V39H38z" id="qr-path" fill="#000000" fill-opacity="1" fill-rule="nonzero" stroke="none"/></svg>